PathFileType	4	(X/Y/Z)	/Users/niels/Desktop/University/Third Semester/Perception and Action/Exam/Gymnastics Motion Tracking/Code for Gym Tracking/Analyzed Data/Webcam_Backflip/id7_3_trajectory_Sports2D/id7_3_trajectory_Sports2D_px_person00.trc
DataRate	CameraRate	NumFrames	NumMarkers	Units	OrigDataRate	OrigDataStartFrame	OrigNumFrames
29.8125	29.8125	9	22	m	29.8125	20	160
Frame#	Time	Hip			RHip			RKnee			RAnkle			RBigToe			RSmallToe			RHeel			LHip			LKnee			LAnkle			LBigToe			LSmallToe			LHeel			Neck			Head			Nose			RShoulder			RElbow			RWrist			LShoulder			LElbow			LWrist		
		X1	Y1	Z1	X2	Y2	Z2	X3	Y3	Z3	X4	Y4	Z4	X5	Y5	Z5	X6	Y6	Z6	X7	Y7	Z7	X8	Y8	Z8	X9	Y9	Z9	X10	Y10	Z10	X11	Y11	Z11	X12	Y12	Z12	X13	Y13	Z13	X14	Y14	Z14	X15	Y15	Z15	X16	Y16	Z16	X17	Y17	Z17	X18	Y18	Z18	X19	Y19	Z19	X20	Y20	Z20	X21	Y21	Z21	X22	Y22	Z22
20	0.670859538784067	0.9743818405291355	-0.47408797020788573	0.0	0.9746687924097992	-0.4735382995142196	0.0	0.9808628842185386	-0.5867824018622285	0.0	0.9750485700391267	-0.693114507391601	0.0	1.005843801197832	-0.7314433607562835	0.0	0.9971985557395331	-0.7307543213649832	0.0	0.9695462698308042	-0.7073430916160649	0.0	0.9722090235758769	-0.4707644192998606	0.0	0.9740235667889338	-0.5846135061189287	0.0	0.9696731330818439	-0.6843577015839839	0.0	0.9974709921603243	-0.7094814349095756	0.0	0.9926551377219293	-0.709528359688994	0.0	0.9616573559176014	-0.6954702464567235	0.0	0.995123408149601	-0.3334812881344746	0.0	1.0216787055777858	-0.26485979556721684	0.0	1.032357764879052	-0.3046448934053057	0.0	0.9892433648763281	-0.34116845196542006	0.0	0.9255427640713877	-0.356553318777281	0.0	0.8620745746410879	-0.3629407953311269	0.0	0.9915028143617868	-0.34362949186813196	0.0	0.942943352141318	-0.36087842334000625	0.0	0.9021072590687477	-0.3699905724108589	0.0
21	0.7044025157232703	0.9745644298951103	-0.4701613927436921	0.0	0.9748312443605366	-0.4695577833038725	0.0	0.9829017721224478	-0.583105475244071	0.0	0.9772050169459864	-0.6898205196304437	0.0	1.0088339972837481	-0.7273222566778487	0.0	1.0001638995523383	-0.7270575400127505	0.0	0.9712947089120023	-0.7036908636582797	0.0	0.9724542759983273	-0.46670180354513807	0.0	0.9757293686314418	-0.5812205348315987	0.0	0.9711365989167675	-0.681306891866334	0.0	1.0003794406668163	-0.7055215087356439	0.0	0.9952475403336228	-0.7050095831518751	0.0	0.9626830072434478	-0.6918580187843602	0.0	0.9955403281587583	-0.33033607829335165	0.0	1.023541059368212	-0.26143910407066545	0.0	1.0335021727891476	-0.30143806410816487	0.0	0.9896437591670151	-0.33801530426298637	0.0	0.9263093215949656	-0.35348019603086256	0.0	0.8633487414832791	-0.3610792346040085	0.0	0.9908128467005938	-0.34004571933355	0.0	0.9413266244515233	-0.3569062242701036	0.0	0.892861121487409	-0.3674320097428054	0.0
22	0.7379454926624737	0.9745274470626532	-0.4697888482477844	0.0	0.9746260902787572	-0.46933866848732564	0.0	0.9852884359800292	-0.5827978517631143	0.0	0.9791369265272425	-0.6903057916256882	0.0	1.0117797373942086	-0.7265257798026574	0.0	1.0030848776900156	-0.7266766633079581	0.0	0.9724843400669647	-0.7042902686324671	0.0	0.97246572023755	-0.46639503318736947	0.0	0.9778475627732124	-0.5811624801809951	0.0	0.9724122073516066	-0.6820317577280615	0.0	1.0030373648659152	-0.7055197390381517	0.0	0.997397657497908	-0.7042878186947975	0.0	0.9634420608421683	-0.6924402238930097	0.0	0.9962168575132571	-0.33111092111167256	0.0	1.025531970709915	-0.2618804948273528	0.0	1.0348895062685644	-0.30201423398639543	0.0	0.989783100894059	-0.3388237568921316	0.0	0.9270479983160853	-0.35477620966189	0.0	0.8641887140640279	-0.36402967327779645	0.0	0.9907001530116446	-0.3404364334518297	0.0	0.9405213321640802	-0.35702519049807013	0.0	0.8858623674310508	-0.36962249680882	0.0
23	0.771488469601677	0.9740855093887959	-0.47314253306623627	0.0	0.9739106674228628	-0.4729807922982578	0.0	0.988253157938137	-0.5857259250220009	0.0	0.9807491882516738	-0.6942664444215747	0.0	1.014657808475505	-0.7287850603419228	0.0	1.0059253748418648	-0.729331422006406	0.0	0.9730440319602056	-0.7087627532441289	0.0	0.9721057420167506	-0.46996741102136785	0.0	0.9806097297666411	-0.5842951636123221	0.0	0.9735157256425726	-0.6861983086982137	0.0	1.0054594488249429	-0.7091642051822608	0.0	0.999175406301581	-0.7072063081916304	0.0	0.9639804371849664	-0.6969776821348478	0.0	0.9972585611341837	-0.3358660422644997	0.0	1.0278063637530974	-0.2663713524331123	0.0	1.036637224540124	-0.3064918299240348	0.0	0.9899029034703095	-0.34377859592350857	0.0	0.9279290782714167	-0.36091043024586694	0.0	0.8650020509724335	-0.37232484920829667	0.0	0.9911112543527181	-0.34483670586540666	0.0	0.9406825892902925	-0.36131369490245907	0.0	0.8817704249760222	-0.3768484978646909	0.0
24	0.8050314465408803	0.9730592287714307	-0.4804858348621374	0.0	0.972591149956713	-0.4806576009467405	0.0	0.9920301195582797	-0.5917649004449116	0.0	0.9819102617188279	-0.7012977468725933	0.0	1.0173438570586846	-0.7336033079615015	0.0	1.008522175943655	-0.7345561216962694	0.0	0.972914509289797	-0.7165011761127756	0.0	0.9711289916109876	-0.4776079698640007	0.0	0.9841680603687248	-0.590504290187872	0.0	0.9743460164654849	-0.6933928406742967	0.0	1.0075567792455027	-0.7159051710412941	0.0	1.0004524976471767	-0.7133850870763707	0.0	0.9642365195573872	-0.7049319691443583	0.0	0.9987834630702422	-0.34465095861818384	0.0	1.0305062423587725	-0.27516820593622604	0.0	1.0388206333132608	-0.3149965279193695	0.0	0.9904933012160337	-0.35310344807627003	0.0	0.9292633577674865	-0.3723647977784187	0.0	0.8664508757461364	-0.38662987359553114	0.0	0.9917771642790728	-0.35326868941280115	0.0	0.9414716507485754	-0.36988119648577605	0.0	0.8805223114036179	-0.38921394448922797	0.0
25	0.8385744234800837	0.9713310904531635	-0.4920373416374108	0.0	0.9706173616776437	-0.4925053179450093	0.0	0.9967128856777074	-0.6008642343441186	0.0	0.9825640051719994	-0.7109982005233796	0.0	1.019606645899977	-0.7404679787440217	0.0	1.0106265145644817	-0.741889979502505	0.0	0.97218916983015	-0.7268320384471133	0.0	0.9693151209501579	-0.4894555819551595	0.0	0.9884967599100722	-0.5997344712708546	0.0	0.9748185359033043	-0.703176986282982	0.0	1.0091609761006914	-0.7250886055278013	0.0	1.0010118780259085	-0.7223152471307929	0.0	0.9641556619513559	-0.7156147094853014	0.0	1.0008850081574696	-0.3574654372026297	0.0	1.0336119943378375	-0.2884597326976769	0.0	1.041419384740196	-0.3276074138372591	0.0	0.9920321969948026	-0.36691726378224376	0.0	0.9314355550066062	-0.389490833190325	0.0	0.8692547304536341	-0.40752034873921944	0.0	0.9924595756515765	-0.36572982999697445	0.0	0.9424064255869664	-0.3827432683857767	0.0	0.8819222416232131	-0.4064003079483755	0.0
26	0.8721174004192871	0.9688922097448018	-0.507830031544368	0.0	0.9680244492990526	-0.508464102753085	0.0	1.0021083383030518	-0.6130789716182824	0.0	0.9827901662507156	-0.7230955824865536	0.0	1.0212313665669208	-0.7491193752688048	0.0	1.0120122165983256	-0.7511033437205735	0.0	0.9711704386805871	-0.7391904809684327	0.0	0.9666515854248777	-0.505446680866641	0.0	0.9933636288504595	-0.6120077330127468	0.0	0.974987696324516	-0.7152228959686148	0.0	1.0101794890697138	-0.7362554450844193	0.0	1.0008362561145399	-0.7335588248406602	0.0	0.9637940011680005	-0.7283949626419001	0.0	1.0035613466014244	-0.37417311979968304	0.0	1.0368726418209622	-0.30616885682479716	0.0	1.044304567868988	-0.34421490287072937	0.0	0.9946907162174885	-0.3850738741541997	0.0	0.9348676457116233	-0.41232232924277085	0.0	0.8741622514604067	-0.43517606948862475	0.0	0.993112988291462	-0.38211674660307615	0.0	0.9433006805819373	-0.39958109770940975	0.0	0.8861166009377247	-0.4273418290515786	0.0
27	0.9056603773584905	0.9658929622062825	-0.5276093293508054	0.0	0.9650408159122346	-0.528197727708259	0.0	1.0076800849241838	-0.6285073413146008	0.0	0.982766317933234	-0.7375483119860509	0.0	1.0221502446775805	-0.7597175427020426	0.0	1.0125790220778916	-0.7623443846156346	0.0	0.970265840464434	-0.753301938592313	0.0	0.9634190121394521	-0.5252387166479006	0.0	0.9983485252638998	-0.6274083387940935	0.0	0.9750015414124593	-0.7294638260110953	0.0	1.010692167927342	-0.7493867479740333	0.0	1.00020838555851	-0.7468890623324133	0.0	0.9633150918432097	-0.7429380358720148	0.0	1.0066074240796834	-0.39441398675543665	0.0	1.039806993000353	-0.32782090020658977	0.0	1.0471928922743552	-0.36439931653378205	0.0	0.9982193381231863	-0.40708752392577024	0.0	0.9399562830636767	-0.4403737311817849	0.0	0.8820496174492364	-0.4691000014739217	0.0	0.9938741287380094	-0.402152821167065	0.0	0.9445118803966528	-0.4198447475492188	0.0	0.8938459061785943	-0.4502589504958789	0.0
28	0.9392033542976937	0.9627187348094567	-0.5507118639790608	0.0	0.9621715123643761	-0.5510468196519039	0.0	1.012599830014122	-0.6471393644180854	0.0	0.982659511579417	-0.7544997540487958	0.0	1.0224256260078777	-0.7727199075681936	0.0	1.0123462373985153	-0.7760279012814758	0.0	0.9698036796809761	-0.7692220967575473	0.0	0.9601872873834854	-0.548168408104799	0.0	1.00287481399039	-0.6459931603224224	0.0	0.9749797370404477	-0.7461019523379447	0.0	1.0109290130780089	-0.7647935788352259	0.0	0.9995817131126911	-0.7622100908140285	0.0	0.9629326476711838	-0.7592795475394228	0.0	1.009516761699053	-0.41749228510749936	0.0	1.041728574266797	-0.35245129471335024	0.0	1.0495448533113203	-0.38736381260516145	0.0	1.0019379167090132	-0.43208689827345065	0.0	0.9469807887770928	-0.47249901653736676	0.0	0.8940371127929835	-0.5078611562179679	0.0	0.9948477536832468	-0.4252980762004656	0.0	0.9468602625883756	-0.4431689086200608	0.0	0.9061056692988501	-0.4733192587850039	0.0
